<svg width="32" height="32" viewBox="0 0 32 32" fill="none" xmlns="http://www.w3.org/2000/svg">
  <defs>
    <linearGradient id="sig-gradient" x1="6" y1="6" x2="26" y2="26" gradientUnits="userSpaceOnUse">
      <stop offset="0%" stop-color="#1c1917"/>
      <stop offset="100%" stop-color="#44403c"/>
    </linearGradient>
  </defs>
  <path 
    d="M12.5 22a4 4 0 00-7.7 1.5 3 3 0 01-3.2 3A6 6 0 0012.8 23.5a9 9 0 01-.3-1.5zm0 0a21.3 21.3 0 004.5-2.2M8.8 21.9a21.3 21.3 0 012.2-4.5m4.6 4.5a21.3 21.3 0 006.4-6.2l5.2-7.8a1.5 1.5 0 00-2.1-2.1l-7.8 5.2a21.3 21.3 0 00-6.2 6.4m4.6 4.5a9 9 0 00-4.6-4.5" 
    stroke="url(#sig-gradient)" 
    stroke-width="2.5" 
    stroke-linecap="round" 
    stroke-linejoin="round"
    fill="none"
  />
</svg>
